#N canvas 157 23 800 555 12;
#X declare -lib Gem;
#X obj 113 78 declare -lib Gem;
#X obj 27 308 gemwin;
#X msg 27 98 create \, 1;
#X msg 65 145 destroy \, 0;
#X msg 60 257 color \$1 \$2 \$3;
#X obj 85 219 pack 0 0 0;
#X floatatom 86 187 5 0 0 0 - - - 0;
#X floatatom 131 186 5 0 0 0 - - - 0;
#X floatatom 176 183 5 0 0 0 - - - 0;
#X obj 176 206 bng 19 250 50 0 empty empty empty 0 -10 0 12 #fcfcfc #000000 #000000;
#X obj 233 54 gemhead;
#X obj 232 26 tgl 19 0 empty empty empty 0 -10 0 12 #fcfcfc #000000 #000000 0 1;
#X obj 264 476 cube 1;
#X obj 259 153 translateXYZ;
#X floatatom 288 119 5 0 0 0 - - - 0;
#X floatatom 331 119 5 0 0 0 - - - 0;
#X floatatom 374 118 5 0 0 0 - - - 0;
#X obj 59 344 gemhead;
#X obj 56 389 world_light;
#X msg 83 292 lighting 1;
#X obj 267 258 rotateXYZ;
#X floatatom 287 222 5 0 0 0 - - - 0;
#X floatatom 328 222 5 0 0 0 - - - 0;
#X floatatom 370 217 5 0 0 0 - - - 0;
#X obj 272 325 colorRGB;
#X floatatom 279 292 5 0 0 0 - - - 0;
#X floatatom 318 286 5 0 0 0 - - - 0;
#X floatatom 360 284 5 0 0 0 - - - 0;
#X obj 493 52 gemhead;
#X obj 442 149 translateXYZ;
#X floatatom 471 115 5 0 0 0 - - - 0;
#X floatatom 514 115 5 0 0 0 - - - 0;
#X floatatom 557 114 5 0 0 0 - - - 0;
#X obj 453 220 rotateXYZ;
#X floatatom 473 184 5 0 0 0 - - - 0;
#X floatatom 514 184 5 0 0 0 - - - 0;
#X floatatom 556 179 5 0 0 0 - - - 0;
#X obj 468 268 scale;
#X obj 496 342 colorRGB;
#X floatatom 503 309 5 0 0 0 - - - 0;
#X floatatom 542 303 5 0 0 0 - - - 0;
#X floatatom 584 301 5 0 0 0 - - - 0;
#X obj 496 430 sphere 1;
#X obj 492 20 tgl 19 0 empty empty empty 0 -10 0 12 #fcfcfc #000000 #000000 0 1;
#X floatatom 491 240 5 0 0 0 - - - 0;
#X msg 290 356 draw default;
#X msg 298 402 draw lines;
#X msg 311 434 draw points;
#X floatatom 570 361 5 0 0 0 - - - 0;
#X floatatom 432 371 5 0 0 0 - - - 0;
#X obj 93 449 adc~;
#X obj 95 487 env~;
#X floatatom 102 517 5 0 0 0 - - - 0;
#X obj 171 441 / 50;
#X floatatom 176 466 5 0 0 0 - - - 0;
#X obj 302 -18 phasor~;
#X floatatom 297 -43 5 0 0 0 - - - 0;
#X obj 308 15 *~ 12;
#X obj 308 40 -~ 6;
#X obj 307 69 snapshot~;
#X obj 360 26 metro 30;
#X obj 365 0 tgl 19 0 empty empty empty 0 -10 0 12 #fcfcfc #000000 #000000 0 1;
#X obj 380 91 snapshot~;
#X obj 387 66 osc~ 2;
#X obj 280 190 f;
#X obj 311 193 + 5;
#X obj 352 182 f;
#X obj 383 185 + 2;
#X obj 80 -6 phasor~ 110;
#X obj 96 36 *~;
#X obj 76 63 dac~;
#X obj 641 13 metro 150;
#X obj 641 -10 tgl 19 0 empty empty empty 0 -10 0 12 #fcfcfc #000000 #000000 0 1;
#X obj 644 46 f;
#X obj 675 52 + 1;
#X obj 645 76 % 4;
#X obj 635 106 select 0 1 2 3;
#X msg 630 136 220;
#X msg 665 138 110;
#X msg 702 136 330;
#X msg 734 139 110;
#X msg 633 174 1;
#X msg 668 175 0.5;
#X msg 710 174 0.3;
#X msg 741 180 0.5;
#X connect 2 0 1 0;
#X connect 3 0 1 0;
#X connect 4 0 1 0;
#X connect 5 0 4 0;
#X connect 6 0 5 0;
#X connect 7 0 5 1;
#X connect 7 0 9 0;
#X connect 8 0 5 2;
#X connect 8 0 9 0;
#X connect 9 0 5 0;
#X connect 10 0 13 0;
#X connect 11 0 10 0;
#X connect 13 0 20 0;
#X connect 14 0 13 1;
#X connect 15 0 13 2;
#X connect 16 0 13 3;
#X connect 17 0 18 0;
#X connect 19 0 1 0;
#X connect 20 0 24 0;
#X connect 21 0 20 1;
#X connect 22 0 20 2;
#X connect 23 0 20 3;
#X connect 24 0 12 0;
#X connect 25 0 24 1;
#X connect 26 0 24 2;
#X connect 27 0 24 3;
#X connect 28 0 29 0;
#X connect 29 0 33 0;
#X connect 30 0 29 1;
#X connect 31 0 29 2;
#X connect 32 0 29 3;
#X connect 33 0 37 0;
#X connect 34 0 33 1;
#X connect 35 0 33 2;
#X connect 36 0 33 3;
#X connect 37 0 38 0;
#X connect 38 0 42 0;
#X connect 39 0 38 1;
#X connect 40 0 38 2;
#X connect 41 0 38 3;
#X connect 43 0 28 0;
#X connect 44 0 37 1;
#X connect 44 0 37 2;
#X connect 45 0 12 0;
#X connect 46 0 12 0;
#X connect 47 0 12 0;
#X connect 48 0 42 2;
#X connect 49 0 42 1;
#X connect 50 0 51 0;
#X connect 51 0 52 0;
#X connect 52 0 53 0;
#X connect 53 0 54 0;
#X connect 54 0 49 0;
#X connect 55 0 57 0;
#X connect 56 0 55 0;
#X connect 57 0 58 0;
#X connect 58 0 59 0;
#X connect 59 0 14 0;
#X connect 60 0 59 0;
#X connect 60 0 62 0;
#X connect 60 0 64 0;
#X connect 60 0 66 0;
#X connect 61 0 60 0;
#X connect 62 0 15 0;
#X connect 62 0 27 0;
#X connect 63 0 62 0;
#X connect 63 0 69 1;
#X connect 64 0 21 0;
#X connect 64 0 65 0;
#X connect 65 0 64 1;
#X connect 66 0 22 0;
#X connect 66 0 67 0;
#X connect 67 0 66 1;
#X connect 68 0 69 0;
#X connect 69 0 70 0;
#X connect 69 0 70 1;
#X connect 71 0 73 0;
#X connect 72 0 71 0;
#X connect 73 0 74 0;
#X connect 73 0 75 0;
#X connect 74 0 73 1;
#X connect 75 0 76 0;
#X connect 76 0 77 0;
#X connect 76 0 81 0;
#X connect 76 1 78 0;
#X connect 76 1 82 0;
#X connect 76 2 79 0;
#X connect 76 2 83 0;
#X connect 76 3 80 0;
#X connect 76 3 84 0;
#X connect 77 0 68 0;
#X connect 78 0 68 0;
#X connect 79 0 68 0;
#X connect 80 0 68 0;
#X connect 81 0 6 0;
#X connect 82 0 6 0;
#X connect 83 0 6 0;
#X connect 84 0 6 0;
